<?xml version="1.0" encoding="UTF-8"?>
<svg width="70" height="70" id="Layer_1" data-name="Layer 1" xmlns="http://www.w3.org/2000/svg" viewBox="0 0 1214.06 318.21">
  <defs>
    <style>
      .cls-1 {
        fill: #a8b3c6;
      }

      .cls-2 {
        fill: #102f64;
      }

      .cls-3 {
        fill: #286d31;
      }

      .cls-4 {
        fill: #0e2e62;
      }

      .cls-5 {
        fill: #004b03;
      }

      .cls-6 {
        fill: #0d2d62;
      }
    </style>
  </defs>
  <path class="cls-4" d="m1099.47,98.13c-.5,4.99-.98,9.74-1.48,14.77-33.63-25.06-90.38-35.04-127.83,30.29-.66-1.5-1.27-2.54-1.59-3.66-.8-2.84-1.13-5.86-2.24-8.56-4.93-11.87-12.68-20.86-24.56-26.85-11.52-5.81-23.48-10.11-36.07-10.18-18.15-.1-34.59,6.59-49.25,17.39-1.35.99-2.85,1.8-4.92,3.09,0-4.33-.07-7.65.05-10.96.09-2.5.04-2.31.1-4.46.02-.61.24-.39-3.21-.42-15.33-.11-32.39.09-47.72.1h-5.17v162.46h54.95v-32.65c0-16.15-.08-32.3.05-48.45.04-5.43.06-10.97,1.09-16.26,3.03-15.71,19-26.84,35.62-26.29,14.97.5,24.61,13.73,26.08,24.45,1.51,11.11,2.02,22.43,2.06,33.67.06,20.08-.57,40.17-.9,60.26-.03,1.76-.01,3.51-.01,5.26h56.39v-41.28c.13-.66.27-1.32.4-1.98.36.63.73,1.25,1.09,1.88,16.31,30.49,39.97,48.79,76.32,44.78,18.04-1.99,34.95-7.48,48.75-20.14.39-.36,1.11-.36,2.39-.74v17.42h55.15V98.13h-55.54Zm.06,81.85c.27,24.86-16.89,38.54-40.64,38.54-18.21.01-35.63-16.1-35.28-39.61.3-20.8,16.31-37.26,38.44-37.29,20.7-.04,38.41,15.58,37.48,38.36Z"/>
  <path class="cls-6" d="m406.69,37.21v-15.05h5.42c256.65,0,513.31,0,769.96-.01,7.43,0,14.51.82,20.82,5.42,8.07,5.89,9.51,14.66,10.67,23.51.56,4.28.48,8.65.49,12.98.03,74,.02,147.99.02,221.99,0,7.22-.67,14.25-5.05,20.43-5.34,7.53-13.15,10.25-21.78,11.22-3.96.44-7.98.5-11.98.5-380.81.02-761.63.02-1142.44-.04-4.57,0-9.38-.09-13.68-1.42-11.87-3.66-17.03-12.92-18.57-24.58-.43-3.29-.55-6.65-.55-9.97C0,212.85,0,143.52.02,74.19c0-12.77,1.34-25.32,5.44-37.56,2.78-8.31,8.7-13.02,16.71-13.68,10.88-.9,21.9-.23,33.12-.23v14.46c-9.18,0-18.16-.32-27.1.09-8.89.4-13.66,6.18-13.66,15,0,73.66-.07,147.31-.05,220.97,0,6.32.23,12.67.87,18.95.62,6.08,5.91,10.98,11.96,11.45,6.75.52,13.52,1.01,20.28,1,358.9-.46,717.81-.99,1076.71-1.41,14.6-.02,29.2,1.21,43.81,1.34,7.05.06,14.14-.87,21.14-1.87,5.3-.76,9.23-5.27,9.32-10.62.14-8.52.93-17.03.94-25.55.12-66.86.15-133.72.12-200.58,0-6.27-.53-12.55-1.04-18.81-.38-4.72-5.4-9.45-10.11-9.55-12.59-.25-25.19-.38-37.78-.52-3.5-.04-7,.12-10.5.12-242.32,0-484.64,0-726.96,0h-6.53Z"/>
  <path class="cls-4" d="m624.2,98.05c-5.34,10.32-10.04,19.42-14.75,28.52-3.61,6.39-7.22,12.77-10.83,19.16-20.18,37.6-59.96,115.81-61.66,115.81-9.32-.02-30.09,0-39.59,0-4.18,0-42.13-81-62.5-118.88-.46-.85-.99-1.67-1.97-3.33-2.33,3.94-4.35,7.34-6.59,11.13-9.57-6.38-20.15-7.75-30.91-7.72-13.15.02-24.53,7.72-29.14,22.14-4.84,15.17-2.28,30.53-2.95,45.78-.68,15.29.09,30.65.21,45.98.01,1.46-.12,2.91-.2,4.54h-55.67V98.16h55.93v22.75c1.84-1.57,2.84-2.21,3.57-3.07,12.72-15.17,28.13-24.76,48.75-23.09,7.71.62,15.36,1.91,23.04,2.86,1.64.21,3.3.35,4.96.36,9,.04,18.03.48,26.99-.12,5.82-.39,7.92,2.24,10,7.01,11.47,26.16,23.26,52.18,34.96,78.23.4.88,1.06,1.64,2.03,3.11,3.05-6.66,5.9-12.79,8.66-18.95,6.58-14.7,13.1-29.43,19.66-44.14,3.28-7.33,6.51-14.68,10.01-21.91.64-1.34,2.46-3.01,3.75-3.02,21.09-.19,42.18-.13,64.24-.13Z"/>
  <path class="cls-4" d="m786.61,184.64c-.03-26.8-.1-59.64-.15-86.44-.01-.04-39.57.23-56.6.06-.05,1.88.03,6.07-.13,9.1-.05,3.31-.18,6.13-.18,9.63-10.02-7.31-19.7-13.37-31.48-16.31-17-4.24-30.73-2.38-35.21-1.55-7.81.94-20.29,3.65-32.35,12.16,0,0-14.31,10.09-24.86,29.44h0s-1.06,1.92-2.02,3.97c-5.52,11.76-7.21,26.82-7.21,26.82-.48,4.31-2.12,21.51,4.13,42.49,1.67,5.61,3.42,11.39,7.43,18.37,5.3,9.24,12.55,17.1,21.35,23.53,16.54,12.08,35.57,17.43,56.45,14.36,13.58-1.99,25.99-6.52,36.63-15.36,2.57-2.15,4.94-4.53,8.4-7.73v18.55h55.81v-5.61c0-25.16.02-50.32-.01-75.48Zm-95.78,38.42c-16.63.53-36.74-15.78-35.34-37.6-1.78-21.56,15.86-39,37.03-39.41,20.79-.41,38.71,13.53,38.75,38.54.04,22.22-13.49,37.61-40.44,38.47Z"/>
  <path class="cls-6" d="m180.51,261.21c0-14.44.14-28.34-.04-42.24-.2-16.27-.53-32.55-1.09-48.81-.34-9.82-2.58-19.02-10.5-25.9-4.8-4.18-10.13-5.87-16.56-6.84-2.92-.44-7.44-.54-12.65.82-2.29.6-11.78,3.21-17.76,11.52-4.44,6.16-4.99,12.74-5.28,16.84-2.03,28.31-1.2,57.73-1.09,62.37.18,7.58.25,18.69-.43,32.3h-54.28V98.26h55.58v16.71c2.7-1.92,4.43-2.98,5.95-4.27,9.04-7.67,18.67-14.33,30.68-16.21,12.62-1.98,25.14-1.33,37.26,3.02,5.25,1.88,10.55,3.82,15.46,6.43,15.51,8.23,25.26,20.93,27.78,38.49,1.31,9.16,2.45,18.43,2.56,27.66.32,28.66.11,57.33.09,85.99,0,1.62-.14,3.25-.24,5.14h-55.44Z"/>
  <path class="cls-6" d="m297.35,261.25h-55.87c0-1.49-.11-2.87-.11-4.28-.02-50.83-.02-101.66,0-152.49,0-6.57.03-6.57,6.54-6.57,14.67,0,29.33,0,44,.02,1.78,0,3.55-.04,5.45.08v163.24Z"/>
  <polygon class="cls-5" points="396.3 2.48 396.3 59.67 396.3 60.63 377.68 60.63 377.68 39.02 356.7 39.02 356.7 60.7 338.53 60.7 338.4 60.68 338.4 2.67 356.71 2.67 356.71 23.44 377.66 23.44 377.66 2.48 396.3 2.48"/>
  <polygon class="cls-5" points="203.41 47.11 203.41 60.52 152.6 60.52 152.6 2.65 202.23 2.65 202.23 15.86 171.18 15.86 171.18 24.21 198.29 24.21 198.29 37.36 198.28 37.36 170.91 37.36 170.91 47.11 203.41 47.11"/>
  <path class="cls-2" d="m297.51,37.68c-.16,14.45-12.1,24.22-28.59,24.08-20.31-.17-30.42-11.17-30.39-33.08,0-3.92.57-10.9,5.19-17.05,9.43-12.53,32.52-16.17,45.06-4.82,6.73,6.09,8.27,14.55,8.7,18.58-5.86.06-11.72.12-17.59.17-.21-.84-.58-2.01-1.25-3.28-.57-1.07-3.46-6.58-8.72-7.03-2.69-.23-4.77.97-5.61,1.46-.49.29-.92.61-.92.61-.77.59-1.48,1.32-2.27,2.49-1.71,2.54-2.52,5.03-2.52,5.03-1.6,4.98-1.45,12.43,1.85,17.91,1.31,2.17,2.66,3.24,3.22,3.64.81.59,2.35,1.71,4.6,1.93,4.05.4,7.01-2.47,7.49-2.94.45-.44.8-.87,1-1.12.27-.34,1.5-1.89,2.49-4.38.21-.52.46-1.22.69-2.09.4,0,2.47-.02,2.87-.03,4.9-.04,9.8-.08,14.69-.12Z"/>
  <polygon class="cls-5" points="114.84 2.54 114.84 16.9 95.96 16.9 95.96 60.37 77.38 60.37 77.38 16.98 58.3 16.98 58.3 2.54 114.84 2.54"/>
  <path class="cls-1" d="m972.41,219.76h-.01c-.36-.63-.73-1.25-1.09-1.88.37.63.73,1.25,1.1,1.88Z"/>
  <path class="cls-3" d="m197.5,37.36c.26-.24.52-.47.78-.71-.26.24-.52.47-.78.71Z"/>
</svg>